<svg version="1.1" id="Layer_1" xmlns="http://www.w3.org/2000/svg" xmlns:xlink="http://www.w3.org/1999/xlink" x="0px" y="0px"
	 width="100%" viewBox="0 0 510 489" enable-background="new 0 0 510 489" xml:space="preserve">
<path fill="#000000" opacity="1.000000" stroke="none" 
	d="
M511.000000,184.000000 
	C511.000000,286.333313 511.000000,388.166626 511.000000,489.999939 
	C341.000061,489.999969 171.000137,489.999969 1.000146,490.000000 
	C1.000097,327.000092 1.000097,164.000214 1.000049,1.000233 
	C170.999863,1.000156 340.999725,1.000156 510.999786,1.000078 
	C511.000000,61.833332 511.000000,122.666664 511.000000,184.000000 
M286.895599,97.485023 
	C286.605865,97.289024 286.316132,97.093018 285.690002,96.315796 
	C279.044769,88.973900 273.332336,80.402908 265.580200,74.519432 
	C241.854111,56.512527 214.037537,49.735321 184.754150,47.984951 
	C180.189056,47.712082 175.633820,47.274387 170.650955,46.140331 
	C129.129868,46.093033 87.608780,46.041691 46.087681,46.032887 
	C45.390770,46.032738 44.693756,46.548946 43.514156,46.985039 
	C43.354195,47.041336 43.194237,47.097630 42.201916,47.415157 
	C42.134689,55.732494 42.011173,64.049820 42.009148,72.367172 
	C41.993130,138.254593 41.998894,204.142029 42.006706,270.029449 
	C42.006943,272.022400 42.102745,274.015350 42.023132,276.824341 
	C43.416756,277.550018 44.767830,278.782288 46.212215,278.903625 
	C50.089729,279.229340 54.007160,279.079895 58.313755,279.851532 
	C58.536606,285.032806 58.645706,290.223267 59.063572,295.388763 
	C59.165966,296.654480 60.278061,297.838470 61.264660,299.638947 
	C64.907944,303.433075 68.492134,307.286102 72.204651,311.011230 
	C89.058418,327.922241 106.032494,344.714752 122.742432,361.766327 
	C125.522995,364.603729 128.174728,366.045898 132.145340,366.069702 
	C145.578583,366.150238 159.009247,366.601440 172.442673,366.750977 
	C176.276459,366.793671 180.116302,366.293365 184.531296,366.668274 
	C190.321732,366.775360 196.114059,367.020294 201.901901,366.939911 
	C205.617493,366.888306 209.326431,366.357697 213.836365,366.128906 
	C218.077560,366.086761 222.321884,366.134094 226.559433,365.986877 
	C244.423355,365.366333 262.306061,365.025360 280.141632,363.928345 
	C295.689178,362.972076 310.703461,359.148224 325.576111,353.074982 
	C325.576111,353.074982 326.016327,352.953339 326.534912,352.829681 
	C326.768066,352.566467 327.001221,352.303223 327.932861,351.963562 
	C348.452576,343.354889 363.845245,329.089966 373.927612,309.341675 
	C382.450287,292.648346 385.001587,274.406769 385.904968,255.986786 
	C386.739044,238.979248 384.481140,222.196671 379.778534,205.827042 
	C376.133209,193.137650 370.503448,181.256149 361.242584,171.748810 
	C342.542816,152.551315 323.398010,133.787079 304.409882,114.871178 
	C303.014252,113.480850 301.402435,112.307564 299.946991,111.000290 
	C299.946991,111.000290 299.975952,111.058632 299.747559,110.488335 
	C299.438293,110.219177 299.128998,109.950020 298.353271,109.272736 
	C294.564392,105.513123 290.775513,101.753502 286.991486,98.008873 
	C286.991486,98.008873 287.004761,98.011070 286.895599,97.485023 
z"/>
<path fill="#2A2459" opacity="1.000000" stroke="none" 
	d="
M326.016327,352.953339 
	C326.016327,352.953339 325.576111,353.074982 325.021454,352.952362 
	C321.118744,350.881775 317.466766,349.307556 314.497559,346.893616 
	C310.558472,343.691101 307.173492,339.811218 303.512695,336.261292 
	C297.199493,330.139252 290.857544,324.046814 284.527008,317.942657 
	C279.908875,313.489655 275.166840,309.156219 270.716156,304.541748 
	C267.963074,301.687347 265.350220,298.588257 263.316864,295.212097 
	C262.659119,294.119934 263.481750,291.191803 264.601135,290.155640 
	C267.630310,287.351654 271.139862,285.052216 274.534943,282.660614 
	C285.897614,274.656311 296.501068,265.890594 303.812469,253.788681 
	C310.994995,241.900085 314.761475,228.840012 316.702667,215.216568 
	C316.987396,213.218216 316.099060,211.052704 315.769592,208.533936 
	C315.892548,206.943649 316.004211,205.784378 316.105743,204.624237 
	C318.917175,172.508072 318.045776,141.029861 300.180786,112.482361 
	C299.936401,112.091866 299.981262,111.520378 299.891113,111.033371 
	C301.402435,112.307564 303.014252,113.480850 304.409882,114.871178 
	C323.398010,133.787079 342.542816,152.551315 361.242584,171.748810 
	C370.503448,181.256149 376.133209,193.137650 379.778534,205.827042 
	C384.481140,222.196671 386.739044,238.979248 385.904968,255.986786 
	C385.001587,274.406769 382.450287,292.648346 373.927612,309.341675 
	C363.845245,329.089966 348.452576,343.354889 327.374268,352.145935 
	C326.549255,352.536621 326.282776,352.744995 326.016327,352.953339 
z"/>
<path fill="#32255A" opacity="1.000000" stroke="none" 
	d="
M315.753540,208.964539 
	C316.099060,211.052704 316.987396,213.218216 316.702667,215.216568 
	C314.761475,228.840012 310.994995,241.900085 303.812469,253.788681 
	C296.501068,265.890594 285.897614,274.656311 274.534943,282.660614 
	C271.139862,285.052216 267.630310,287.351654 264.601135,290.155640 
	C263.481750,291.191803 262.659119,294.119934 263.316864,295.212097 
	C265.350220,298.588257 267.963074,301.687347 270.716156,304.541748 
	C275.166840,309.156219 279.908875,313.489655 284.527008,317.942657 
	C290.857544,324.046814 297.199493,330.139252 303.512695,336.261292 
	C307.173492,339.811218 310.558472,343.691101 314.497559,346.893616 
	C317.466766,349.307556 321.118744,350.881775 324.801636,353.014160 
	C310.703461,359.148224 295.689178,362.972076 280.141632,363.928345 
	C262.306061,365.025360 244.423355,365.366333 226.559433,365.986877 
	C222.321884,366.134094 218.077560,366.086761 212.966873,366.080200 
	C202.716049,366.035034 193.334702,366.038544 183.953369,366.042053 
	C180.116302,366.293365 176.276459,366.793671 172.442673,366.750977 
	C159.009247,366.601440 145.578583,366.150238 132.145340,366.069702 
	C128.174728,366.045898 125.522995,364.603729 122.742432,361.766327 
	C106.032494,344.714752 89.058418,327.922241 72.204651,311.011230 
	C68.492134,307.286102 64.907944,303.433075 61.466122,299.156372 
	C64.150482,298.523621 66.633347,298.243378 69.116280,298.242767 
	C104.410095,298.234344 139.703918,298.270447 174.997742,298.281830 
	C200.407959,298.290009 225.609299,296.511932 249.830231,288.060791 
	C273.931000,279.651550 294.078979,265.921509 305.036957,242.068909 
	C309.845459,231.602097 312.254822,220.033081 315.753540,208.964539 
z"/>
<path fill="#9F3469" opacity="1.000000" stroke="none" 
	d="
M315.769592,208.533936 
	C312.254822,220.033081 309.845459,231.602097 305.036957,242.068909 
	C294.078979,265.921509 273.931000,279.651550 249.830231,288.060791 
	C225.609299,296.511932 200.407959,298.290009 174.997742,298.281830 
	C139.703918,298.270447 104.410095,298.234344 69.116280,298.242767 
	C66.633347,298.243378 64.150482,298.523621 61.296761,298.866943 
	C60.278061,297.838470 59.165966,296.654480 59.063572,295.388763 
	C58.645706,290.223267 58.536606,285.032806 58.562881,279.451721 
	C61.233711,279.083832 63.655411,279.115814 66.073868,279.597107 
	C65.995247,291.099396 65.995247,291.099396 76.989479,290.990997 
	C77.648354,290.984497 78.307236,290.978210 79.381836,290.983704 
	C81.802200,290.818054 83.806839,290.640503 85.593452,290.482269 
	C84.264175,286.305115 83.118835,282.705963 82.389008,279.059723 
	C84.196198,279.051819 85.587883,279.091003 87.043465,279.477753 
	C88.925941,285.869751 93.978561,286.045807 98.847488,285.947784 
	C134.284622,285.234528 169.730270,287.252716 205.185211,284.310394 
	C222.953720,282.835815 240.189484,280.224701 256.804657,273.862671 
	C278.430786,265.581909 292.490326,250.498138 299.282196,228.112030 
	C304.982269,209.324600 304.360748,190.300491 303.403503,171.176880 
	C303.264984,168.410080 301.508118,165.724319 300.443359,162.536316 
	C300.244812,156.380814 300.103088,150.690018 300.245422,145.174973 
	C302.012573,147.238831 303.495667,149.126953 304.978943,151.345856 
	C304.981934,152.117630 304.984680,152.558655 304.883453,153.241241 
	C305.181915,154.325302 305.584381,155.167816 305.988586,156.436676 
	C306.001984,158.568802 306.013580,160.274582 306.046143,162.407104 
	C306.548309,176.287216 307.029480,189.740570 307.510620,203.193909 
	C307.962067,203.192169 308.413513,203.190430 308.864929,203.188705 
	C310.496857,189.492340 310.753052,175.763550 308.978638,161.558258 
	C306.867249,151.625351 305.243500,141.975861 302.453613,132.676178 
	C300.982330,127.771782 297.476776,123.477646 294.706696,118.601334 
	C292.011353,111.527756 289.498993,104.760826 286.986633,97.993889 
	C290.775513,101.753502 294.564392,105.513123 298.684021,109.781830 
	C299.335175,110.546822 299.655548,110.802727 299.975952,111.058624 
	C299.975952,111.058632 299.946991,111.000290 299.919067,111.016830 
	C299.981262,111.520378 299.936401,112.091866 300.180786,112.482361 
	C318.045776,141.029861 318.917175,172.508072 316.105743,204.624237 
	C316.004211,205.784378 315.892548,206.943649 315.769592,208.533936 
z"/>
<path fill="#FB4479" opacity="1.000000" stroke="none" 
	d="
M299.961365,144.999237 
	C300.103088,150.690018 300.244812,156.380814 300.355774,162.996735 
	C299.872772,171.063889 299.761017,178.246613 298.912292,185.341187 
	C294.004028,226.370834 272.943634,254.843399 233.357498,268.528900 
	C211.547241,276.069031 188.813873,278.350067 165.947540,278.802094 
	C139.633011,279.322266 113.302902,279.055298 86.979561,279.130188 
	C85.587883,279.091003 84.196198,279.051819 81.988945,279.014771 
	C80.103111,279.052521 79.032845,279.088165 77.507240,279.076080 
	C73.393631,279.068146 69.735374,279.107971 66.077110,279.147797 
	C63.655411,279.115814 61.233711,279.083832 58.360374,279.085510 
	C54.007160,279.079895 50.089729,279.229340 46.212215,278.903625 
	C44.767830,278.782288 43.416756,277.550018 42.230316,276.028870 
	C42.621895,272.589325 42.965870,269.945374 42.967438,267.301239 
	C43.010963,193.918793 43.019745,120.536362 43.034275,47.153919 
	C43.194237,47.097630 43.354195,47.041336 44.220787,46.963051 
	C58.224686,46.954594 71.521965,46.984051 84.819221,46.978374 
	C113.570824,46.966106 142.322433,46.935825 171.074036,46.912910 
	C175.633820,47.274387 180.189056,47.712082 184.754150,47.984951 
	C214.037537,49.735321 241.854111,56.512527 265.580200,74.519432 
	C273.332336,80.402908 279.044769,88.973900 285.940247,96.855873 
	C286.461945,97.600990 286.733337,97.806030 287.004761,98.011070 
	C287.004761,98.011070 286.991486,98.008873 286.989075,98.001381 
	C289.498993,104.760826 292.011353,111.527756 294.742249,119.008369 
	C296.342133,125.813118 297.723419,131.904175 299.075989,138.392670 
	C299.351929,140.859818 299.656647,142.929520 299.961365,144.999237 
M252.875443,71.766388 
	C252.575516,71.602821 252.275604,71.439255 251.296188,71.005379 
	C247.507935,69.071938 243.719696,67.138504 239.306473,64.825241 
	C229.552277,62.172211 219.798065,59.519180 209.565094,56.203098 
	C205.675262,55.755135 201.791168,55.247971 197.894485,54.870789 
	C187.912430,53.904564 177.924759,52.996143 167.023178,51.893700 
	C144.445984,51.807411 121.868851,51.685379 99.291588,51.652779 
	C90.502022,51.640083 81.712166,51.828968 72.019814,51.730118 
	C63.828491,51.730118 55.637173,51.730118 47.135162,51.730118 
	C47.135162,59.220032 47.135162,66.109497 46.983814,73.925522 
	C47.033451,80.949738 47.083088,87.973961 46.981941,95.925095 
	C46.972786,153.734360 46.963501,211.543640 46.955753,269.352905 
	C46.955639,270.185791 46.642696,271.299255 47.057541,271.790192 
	C47.805641,272.675507 48.994644,273.188232 50.823318,273.998932 
	C52.212685,273.950256 53.602051,273.901550 55.785995,273.993073 
	C56.859112,273.945984 57.932224,273.898926 59.885365,273.939362 
	C61.949326,273.905945 64.013283,273.872528 66.975838,273.964935 
	C70.310959,273.930634 73.646072,273.896332 77.644524,273.957825 
	C78.089684,273.930023 78.534843,273.902252 79.724854,273.971497 
	C80.473930,273.938080 81.223015,273.904663 82.801918,273.966187 
	C84.191200,273.927277 85.580482,273.888397 87.906921,273.941895 
	C115.388924,273.923859 142.873825,274.125977 170.351303,273.765015 
	C179.622910,273.643250 188.875732,272.093567 198.972260,271.166046 
	C216.254028,269.294922 232.886703,265.269226 248.744644,256.147858 
	C262.319122,249.247284 272.925171,239.160873 280.821991,226.188705 
	C289.153748,212.502029 292.960419,197.349747 294.341339,181.628555 
	C295.858215,164.359329 296.333832,147.041962 292.147675,129.159103 
	C291.144897,126.095490 290.142151,123.031868 289.074097,119.195076 
	C288.666565,117.455299 288.259003,115.715523 287.767303,113.280708 
	C286.855408,111.174225 285.943481,109.067741 284.896576,106.286186 
	C283.625549,104.171135 282.354523,102.056084 280.962341,99.248795 
	C275.983887,93.458855 271.005432,87.668915 265.843262,81.239014 
	C261.915405,78.369171 257.987549,75.499329 253.669815,72.286606 
	C253.498322,72.263306 253.326813,72.240013 252.875443,71.766388 
z"/>
<path fill="#FE5484" opacity="1.000000" stroke="none" 
	d="
M42.618095,47.284538 
	C43.019745,120.536362 43.010963,193.918793 42.967438,267.301239 
	C42.965870,269.945374 42.621895,272.589325 42.295746,275.620850 
	C42.102745,274.015350 42.006943,272.022400 42.006706,270.029449 
	C41.998894,204.142029 41.993130,138.254593 42.009148,72.367172 
	C42.011173,64.049820 42.134689,55.732494 42.618095,47.284538 
z"/>
<path fill="#FAC8D7" opacity="1.000000" stroke="none" 
	d="
M170.862488,46.526619 
	C142.322433,46.935825 113.570824,46.966106 84.819221,46.978374 
	C71.521965,46.984051 58.224686,46.954594 44.462105,46.882637 
	C44.693756,46.548946 45.390770,46.032738 46.087681,46.032887 
	C87.608780,46.041691 129.129868,46.093033 170.862488,46.526619 
z"/>
<path fill="#384C76" opacity="1.000000" stroke="none" 
	d="
M184.242340,366.355164 
	C193.334702,366.038544 202.716049,366.035034 212.567871,366.036652 
	C209.326431,366.357697 205.617493,366.888306 201.901901,366.939911 
	C196.114059,367.020294 190.321732,366.775360 184.242340,366.355164 
z"/>
<path fill="#2A2459" opacity="1.000000" stroke="none" 
	d="
M299.861755,110.773483 
	C299.655548,110.802727 299.335175,110.546822 298.917236,109.985893 
	C299.128998,109.950020 299.438293,110.219177 299.861755,110.773483 
z"/>
<path fill="#9F3469" opacity="1.000000" stroke="none" 
	d="
M286.950195,97.748047 
	C286.733337,97.806030 286.461945,97.600990 286.108459,97.146484 
	C286.316132,97.093018 286.605865,97.289024 286.950195,97.748047 
z"/>
<path fill="#32255A" opacity="1.000000" stroke="none" 
	d="
M326.275635,352.891510 
	C326.282776,352.744995 326.549255,352.536621 327.025024,352.184143 
	C327.001221,352.303223 326.768066,352.566467 326.275635,352.891510 
z"/>
<path fill="#AB356A" opacity="1.000000" stroke="none" 
	d="
M87.043465,279.477753 
	C113.302902,279.055298 139.633011,279.322266 165.947540,278.802094 
	C188.813873,278.350067 211.547241,276.069031 233.357498,268.528900 
	C272.943634,254.843399 294.004028,226.370834 298.912292,185.341187 
	C299.761017,178.246613 299.872772,171.063889 300.412567,163.461456 
	C301.508118,165.724319 303.264984,168.410080 303.403503,171.176880 
	C304.360748,190.300491 304.982269,209.324600 299.282196,228.112030 
	C292.490326,250.498138 278.430786,265.581909 256.804657,273.862671 
	C240.189484,280.224701 222.953720,282.835815 205.185211,284.310394 
	C169.730270,287.252716 134.284622,285.234528 98.847488,285.947784 
	C93.978561,286.045807 88.925941,285.869751 87.043465,279.477753 
z"/>
<path fill="#6F2D62" opacity="1.000000" stroke="none" 
	d="
M66.073868,279.597107 
	C69.735374,279.107971 73.393631,279.068146 77.516251,279.509033 
	C78.309113,283.650421 78.637611,287.311157 78.966110,290.971863 
	C78.307236,290.978210 77.648354,290.984497 76.989479,290.990997 
	C65.995247,291.099396 65.995247,291.099396 66.073868,279.597107 
z"/>
<path fill="#8C3166" opacity="1.000000" stroke="none" 
	d="
M299.104736,137.995239 
	C297.723419,131.904175 296.342133,125.813118 294.925293,119.315018 
	C297.476776,123.477646 300.982330,127.771782 302.453613,132.676178 
	C305.243500,141.975861 306.867249,151.625351 308.609161,161.560272 
	C307.503693,161.987442 306.764435,161.983902 306.025208,161.980362 
	C306.013580,160.274582 306.001984,158.568802 305.942749,156.119308 
	C305.592560,154.583618 305.290009,153.791656 304.987457,152.999680 
	C304.984680,152.558655 304.981934,152.117630 304.932495,150.967606 
	C302.958832,146.170822 301.031769,142.083038 299.104736,137.995239 
z"/>
<path fill="#953267" opacity="1.000000" stroke="none" 
	d="
M306.046173,162.407104 
	C306.764435,161.983902 307.503693,161.987442 308.612396,161.988983 
	C310.753052,175.763550 310.496857,189.492340 308.864929,203.188705 
	C308.413513,203.190430 307.962067,203.192169 307.510620,203.193909 
	C307.029480,189.740570 306.548309,176.287216 306.046173,162.407104 
z"/>
<path fill="#8C3166" opacity="1.000000" stroke="none" 
	d="
M79.381836,290.983734 
	C78.637611,287.311157 78.309113,283.650421 77.971603,279.556763 
	C79.032845,279.088165 80.103111,279.052521 81.573425,279.061829 
	C83.118835,282.705963 84.264175,286.305115 85.593452,290.482269 
	C83.806839,290.640503 81.802200,290.818054 79.381836,290.983734 
z"/>
<path fill="#953267" opacity="1.000000" stroke="none" 
	d="
M299.075958,138.392670 
	C301.031769,142.083038 302.958832,146.170822 304.932312,150.636841 
	C303.495667,149.126953 302.012573,147.238831 300.245422,145.174973 
	C299.656647,142.929520 299.351929,140.859818 299.075958,138.392670 
z"/>
<path fill="#953267" opacity="1.000000" stroke="none" 
	d="
M304.883453,153.241241 
	C305.290009,153.791656 305.592560,154.583618 305.940979,155.692963 
	C305.584381,155.167816 305.181915,154.325302 304.883453,153.241241 
z"/>
<path fill="#AC356B" opacity="1.000000" stroke="none" 
	d="
M198.137146,271.196472 
	C188.875732,272.093567 179.622910,273.643250 170.351303,273.765015 
	C142.873825,274.125977 115.388924,273.923859 87.443344,273.438690 
	C86.858253,216.131500 86.745857,159.327499 86.603416,102.523582 
	C86.585999,95.576538 89.329018,92.595734 96.147896,92.620110 
	C126.463272,92.728500 156.778549,92.959801 187.093857,92.962029 
	C204.141754,92.963287 220.989609,94.454903 237.641220,98.202087 
	C255.876953,102.305756 272.481689,109.367775 285.378876,123.529076 
	C287.480499,125.836685 289.932526,127.825157 292.222595,129.961136 
	C296.333832,147.041962 295.858215,164.359329 294.341339,181.628555 
	C292.960419,197.349747 289.153748,212.502029 280.821991,226.188705 
	C272.925171,239.160873 262.319122,249.247284 248.526367,255.923843 
	C249.448898,254.523422 250.474838,253.201996 251.748428,252.193222 
	C263.322357,243.025970 270.672943,231.060394 273.585846,216.782516 
	C276.718994,201.425247 277.721405,186.024734 275.078094,170.188110 
	C270.274353,141.407959 251.910782,120.432098 223.572220,113.818321 
	C221.808609,113.406715 219.776703,114.144669 217.558273,114.186142 
	C204.270233,104.492798 189.261353,100.814445 173.625534,100.121193 
	C154.021866,99.252029 134.375000,99.325668 114.745636,99.083450 
	C107.093491,98.989021 106.825439,99.329872 106.822800,106.878578 
	C106.809738,144.164734 106.810020,181.450897 106.823257,218.737061 
	C106.825729,225.693863 106.862953,225.693848 114.012512,226.837250 
	C114.017914,236.429565 113.880173,245.580994 114.075455,254.725296 
	C114.250916,262.941589 117.270515,270.711273 129.785950,270.108368 
	C140.572647,269.588806 151.404282,270.003998 162.216049,270.002747 
	C170.824478,270.001740 179.435013,269.885376 188.040314,270.047699 
	C191.411942,270.111298 194.771881,270.795105 198.137146,271.196472 
z"/>
<path fill="#6F2D62" opacity="1.000000" stroke="none" 
	d="
M76.981194,273.862000 
	C73.646072,273.896332 70.310959,273.930634 66.524246,273.444397 
	C66.065453,247.280640 66.054062,221.637421 66.052040,195.994202 
	C66.048996,157.362854 66.070618,118.731491 66.026039,80.100197 
	C66.021439,76.107208 66.122894,72.869453 71.641586,72.966217 
	C118.394966,73.786049 165.226562,70.879860 211.895905,75.148315 
	C235.023544,77.263596 257.042267,83.577919 276.213654,97.582779 
	C277.646545,98.629509 279.451508,99.166878 281.083496,99.941032 
	C282.354523,102.056084 283.625549,104.171135 284.684662,106.720367 
	C282.985443,106.584496 281.434357,106.140244 280.021301,105.423737 
	C271.585968,101.146515 263.552979,95.713417 254.692856,92.710014 
	C234.886688,85.996162 214.243271,83.118980 193.310913,83.035225 
	C160.005035,82.901962 126.698219,82.995651 93.391800,83.008316 
	C91.229607,83.009132 89.044365,82.961266 86.909752,83.240791 
	C81.253197,83.981522 77.925476,87.332489 77.226067,93.019592 
	C76.942947,95.321747 77.007195,97.673386 77.006546,100.002525 
	C76.990509,157.955688 76.986961,215.908844 76.981194,273.862000 
z"/>
<path fill="#9D356A" opacity="1.000000" stroke="none" 
	d="
M281.022919,99.594910 
	C279.451508,99.166878 277.646545,98.629509 276.213654,97.582779 
	C257.042267,83.577919 235.023544,77.263596 211.895905,75.148315 
	C165.226562,70.879860 118.394966,73.786049 71.641586,72.966217 
	C66.122894,72.869453 66.021439,76.107208 66.026039,80.100197 
	C66.070618,118.731491 66.048996,157.362854 66.052040,195.994202 
	C66.054062,221.637421 66.065453,247.280640 66.074951,273.381470 
	C64.013283,273.872528 61.949326,273.905945 59.444183,273.438660 
	C59.008057,223.112442 59.018181,173.286957 59.009541,123.461464 
	C59.008762,118.966782 58.886940,114.472115 58.885139,109.514709 
	C58.907413,103.363174 58.865879,97.674377 58.892780,91.527573 
	C58.915821,87.040382 58.870430,83.011192 58.893929,78.523766 
	C58.962822,74.176292 58.962822,70.287064 58.962822,65.866051 
	C64.484108,65.866051 69.238388,65.866051 74.436989,65.946716 
	C77.587852,65.977959 80.294403,65.928520 83.464005,65.955750 
	C91.282990,65.978035 98.638908,65.923668 106.457939,65.947403 
	C119.084343,66.037117 131.247757,66.087944 143.410934,66.052673 
	C174.725433,65.961861 206.080276,65.224464 237.214554,72.487602 
	C245.160614,75.233055 252.805283,77.783981 260.463623,80.293213 
	C262.294708,80.893158 264.171295,81.354103 266.026978,81.878983 
	C271.005432,87.668915 275.983887,93.458855 281.022919,99.594910 
z"/>
<path fill="#9D3368" opacity="1.000000" stroke="none" 
	d="
M292.185120,129.560120 
	C289.932526,127.825157 287.480499,125.836685 285.378876,123.529076 
	C272.481689,109.367775 255.876953,102.305756 237.641220,98.202087 
	C220.989609,94.454903 204.141754,92.963287 187.093857,92.962029 
	C156.778549,92.959801 126.463272,92.728500 96.147896,92.620110 
	C89.329018,92.595734 86.585999,95.576538 86.603416,102.523582 
	C86.745857,159.327499 86.858253,216.131500 86.974770,273.392487 
	C85.580482,273.888397 84.191200,273.927277 82.393318,273.459351 
	C81.991234,265.628021 82.002884,258.303589 82.003448,250.979126 
	C82.007263,201.039490 81.993057,151.099823 82.025528,101.160202 
	C82.031334,92.229233 85.051376,88.893318 93.385101,89.036270 
	C135.792297,89.763733 178.271545,86.879822 220.601700,91.105515 
	C239.986984,93.040695 258.533508,98.142906 274.923248,109.246040 
	C279.830933,112.570709 284.409851,116.380630 289.139404,119.968246 
	C290.142151,123.031868 291.144897,126.095490 292.185120,129.560120 
z"/>
<path fill="#A7346A" opacity="1.000000" stroke="none" 
	d="
M198.554703,271.181244 
	C194.771881,270.795105 191.411942,270.111298 188.040314,270.047699 
	C179.435013,269.885376 170.824478,270.001740 162.216049,270.002747 
	C151.404282,270.003998 140.572647,269.588806 129.785950,270.108368 
	C117.270515,270.711273 114.250916,262.941589 114.075455,254.725296 
	C113.880173,245.580994 114.017914,236.429565 114.387985,226.794464 
	C115.518219,226.340454 116.271164,226.373245 117.020889,226.842773 
	C117.014160,234.576401 116.873642,241.877502 117.097893,249.167404 
	C117.158333,251.132233 118.326210,253.063004 118.985832,255.383179 
	C118.987991,256.504517 118.990074,257.252075 118.940277,258.204193 
	C119.255455,258.942230 119.622513,259.475677 120.091888,260.313141 
	C121.127083,261.747375 122.059959,262.877625 123.124649,264.270203 
	C124.504425,265.024323 125.752373,265.516113 127.332321,266.009064 
	C128.107010,266.010406 128.549683,266.010620 129.235168,266.300110 
	C130.844131,267.048889 132.207504,267.898224 133.576828,267.907867 
	C147.779907,268.008270 161.984558,268.036011 176.186798,267.889740 
	C177.800354,267.873108 179.401672,266.667206 181.407730,266.012756 
	C182.870987,266.010986 183.935196,266.009186 185.327118,266.158386 
	C188.104050,266.205048 190.553253,266.100708 193.335205,265.997101 
	C194.111313,265.997070 194.554672,265.996277 195.457703,265.997070 
	C200.694427,265.377869 206.104568,267.748749 210.384796,263.011841 
	C211.505219,263.007690 212.252274,263.007629 213.240845,263.111816 
	C214.324097,262.813690 215.165817,262.411377 216.339722,262.007019 
	C217.114517,262.004730 217.557144,262.004517 218.289917,262.098083 
	C220.390259,261.466675 222.200470,260.741425 224.417984,260.005554 
	C227.964539,259.049866 231.281769,258.476410 234.203568,257.077209 
	C239.264359,254.653732 244.080154,251.718643 249.295929,248.883972 
	C250.396194,247.847153 251.199219,246.924469 252.216949,245.747543 
	C255.288910,242.330078 258.146118,239.166870 261.255127,235.861542 
	C262.002808,235.145294 262.498749,234.571198 262.996826,233.665359 
	C263.001709,232.891296 263.004456,232.448959 263.291931,231.854553 
	C264.382660,230.467346 265.188629,229.232224 266.039032,227.635437 
	C266.390533,225.850601 266.697571,224.427444 267.266785,222.846100 
	C268.021576,221.125153 268.514191,219.562393 269.008972,217.626404 
	C269.013580,216.506699 269.016083,215.760223 269.209473,214.911285 
	C269.602173,214.205750 269.804077,213.602676 270.008118,212.625671 
	C270.013733,211.503815 270.017212,210.755905 270.301727,209.776947 
	C271.385254,205.361679 272.187744,201.177490 272.990997,196.527618 
	C272.991425,191.376846 272.991058,186.691727 272.971924,181.657349 
	C272.635254,180.205383 272.317352,179.102692 271.999512,177.625092 
	C271.999146,176.500534 271.998749,175.750885 271.988098,174.633453 
	C271.323700,172.840408 270.669525,171.415146 270.014679,169.616180 
	C270.011108,168.495087 270.008209,167.747696 270.057556,166.795959 
	C269.745148,166.056976 269.380432,165.522339 269.014587,164.572296 
	C269.007202,162.772171 269.000916,161.387451 268.949707,159.654785 
	C267.939484,157.868744 266.974243,156.430649 266.007294,154.618958 
	C266.001312,153.498184 265.996979,152.751022 265.853088,151.750763 
	C265.144257,150.996506 264.574982,150.495331 263.852234,149.684341 
	C262.465424,146.916626 261.232117,144.458740 259.857758,141.748276 
	C259.144501,140.997055 258.572266,140.498398 257.781433,139.754929 
	C255.709290,137.339462 253.855728,135.168823 251.860397,132.746094 
	C251.145294,131.996719 250.571976,131.499451 249.736389,130.903168 
	C248.983368,130.535629 248.492615,130.267059 247.886902,129.701599 
	C246.847214,128.604263 245.922485,127.803856 244.691589,126.924416 
	C243.591797,126.562141 242.798218,126.278900 241.862335,125.743919 
	C241.145981,124.996040 240.571899,124.499893 239.625015,123.952332 
	C233.710419,122.295197 228.168625,120.689484 222.379456,118.901657 
	C220.711273,117.262291 219.290451,115.805038 217.869629,114.347794 
	C219.776703,114.144669 221.808609,113.406715 223.572220,113.818321 
	C251.910782,120.432098 270.274353,141.407959 275.078094,170.188110 
	C277.721405,186.024734 276.718994,201.425247 273.585846,216.782516 
	C270.672943,231.060394 263.322357,243.025970 251.748428,252.193222 
	C250.474838,253.201996 249.448898,254.523422 248.181091,256.039734 
	C232.886703,265.269226 216.254028,269.294922 198.554703,271.181244 
z"/>
<path fill="#8C3166" opacity="1.000000" stroke="none" 
	d="
M289.106750,119.581665 
	C284.409851,116.380630 279.830933,112.570709 274.923248,109.246040 
	C258.533508,98.142906 239.986984,93.040695 220.601700,91.105515 
	C178.271545,86.879822 135.792297,89.763733 93.385101,89.036270 
	C85.051376,88.893318 82.031334,92.229233 82.025528,101.160202 
	C81.993057,151.099823 82.007263,201.039490 82.003448,250.979126 
	C82.002884,258.303589 81.991234,265.628021 81.978409,273.411865 
	C81.223015,273.904663 80.473930,273.938080 79.357651,273.462952 
	C78.996277,268.289062 78.983009,263.623566 79.010864,258.958374 
	C79.331062,205.326462 79.609642,151.694244 80.027092,98.063103 
	C80.100937,88.577225 82.954414,86.023636 92.493759,86.011536 
	C121.152473,85.975166 149.816833,85.655426 178.467804,86.126488 
	C194.226517,86.385582 210.011978,87.533707 225.696274,89.147049 
	C243.947067,91.024422 261.211029,96.365364 276.601593,106.826508 
	C280.274475,109.322998 284.097504,111.598564 287.851471,113.975746 
	C288.259003,115.715523 288.666565,117.455299 289.106750,119.581665 
z"/>
<path fill="#7D2F64" opacity="1.000000" stroke="none" 
	d="
M287.809387,113.628227 
	C284.097504,111.598564 280.274475,109.322998 276.601593,106.826508 
	C261.211029,96.365364 243.947067,91.024422 225.696274,89.147049 
	C210.011978,87.533707 194.226517,86.385582 178.467804,86.126488 
	C149.816833,85.655426 121.152473,85.975166 92.493759,86.011536 
	C82.954414,86.023636 80.100937,88.577225 80.027092,98.063103 
	C79.609642,151.694244 79.331062,205.326462 79.010864,258.958374 
	C78.983009,263.623566 78.996277,268.289062 78.985222,273.414429 
	C78.534843,273.902252 78.089684,273.930023 77.312859,273.909912 
	C76.986961,215.908844 76.990509,157.955688 77.006546,100.002525 
	C77.007195,97.673386 76.942947,95.321747 77.226067,93.019592 
	C77.925476,87.332489 81.253197,83.981522 86.909752,83.240791 
	C89.044365,82.961266 91.229607,83.009132 93.391800,83.008316 
	C126.698219,82.995651 160.005035,82.901962 193.310913,83.035225 
	C214.243271,83.118980 234.886688,85.996162 254.692856,92.710014 
	C263.552979,95.713417 271.585968,101.146515 280.021301,105.423737 
	C281.434357,106.140244 282.985443,106.584496 284.752167,107.057907 
	C285.943481,109.067741 286.855408,111.174225 287.809387,113.628227 
z"/>
<path fill="#DEE1E8" opacity="1.000000" stroke="none" 
	d="
M58.824348,91.985573 
	C58.865879,97.674377 58.907413,103.363174 58.605659,109.726425 
	C57.577908,111.873871 56.475368,113.295273 56.286041,114.829384 
	C55.676750,119.766449 55.064220,124.744423 55.054779,129.707779 
	C54.963341,177.755997 54.994949,225.804459 54.991417,273.852844 
	C53.602051,273.901550 52.212685,273.950256 50.410160,273.468323 
	C50.332054,223.637711 50.478539,174.335083 51.170258,125.040108 
	C51.299812,115.807610 53.435730,106.574730 55.054882,97.414345 
	C55.403118,95.444221 57.521423,93.786957 58.824348,91.985573 
z"/>
<path fill="#DEE1E8" opacity="1.000000" stroke="none" 
	d="
M105.994835,65.869293 
	C98.638908,65.923668 91.282990,65.978035 83.605576,65.646500 
	C85.702660,63.972454 88.013489,61.868965 90.557831,61.532818 
	C103.849129,59.776802 117.178421,57.523006 130.534561,57.222435 
	C151.932510,56.740879 173.361206,57.741077 194.778534,57.921139 
	C199.863663,57.963890 204.955246,57.238316 210.043869,56.866150 
	C219.798065,59.519180 229.552277,62.172211 239.409058,65.267227 
	C237.939804,65.899147 236.330429,66.406700 234.802383,66.226089 
	C226.553055,65.251045 218.333817,63.264961 210.086044,63.167789 
	C178.644028,62.797359 147.194504,62.933689 115.749512,63.141144 
	C112.492096,63.162640 109.246117,64.918289 105.994835,65.869293 
z"/>
<path fill="#E6E9EE" opacity="1.000000" stroke="none" 
	d="
M58.892784,91.527573 
	C57.521423,93.786957 55.403118,95.444221 55.054882,97.414345 
	C53.435730,106.574730 51.299812,115.807610 51.170258,125.040108 
	C50.478539,174.335083 50.332054,223.637711 49.998245,273.397156 
	C48.994644,273.188232 47.805641,272.675507 47.057541,271.790192 
	C46.642696,271.299255 46.955639,270.185791 46.955753,269.352905 
	C46.963501,211.543640 46.972786,153.734360 47.389877,95.377228 
	C49.283039,92.828484 50.826046,90.867470 52.240234,88.817589 
	C54.480484,85.570320 56.634521,82.263580 58.825035,78.982002 
	C58.870430,83.011192 58.915821,87.040382 58.892784,91.527573 
z"/>
<path fill="#F0F2F5" opacity="1.000000" stroke="none" 
	d="
M58.893929,78.523766 
	C56.634521,82.263580 54.480484,85.570320 52.240234,88.817589 
	C50.826046,90.867470 49.283039,92.828484 47.465267,94.913765 
	C47.083088,87.973961 47.033451,80.949738 47.403801,73.403282 
	C49.406731,71.778313 51.086899,70.790810 52.555035,69.552025 
	C57.686749,65.221977 62.749634,60.810226 67.829124,56.418472 
	C69.541527,54.937912 71.225487,53.424450 72.922447,51.926025 
	C81.712166,51.828968 90.502022,51.640083 99.291588,51.652779 
	C121.868851,51.685379 144.445984,51.807411 167.246857,52.265598 
	C165.260040,53.087582 163.052704,53.908829 160.838593,53.927460 
	C146.559921,54.047615 132.275269,53.770592 118.001442,54.060146 
	C105.008644,54.323715 92.144135,55.880112 80.108093,61.248665 
	C77.835281,62.262424 76.019394,64.300583 73.992668,65.866051 
	C69.238388,65.866051 64.484108,65.866051 58.962822,65.866051 
	C58.962822,70.287064 58.962822,74.176292 58.893929,78.523766 
z"/>
<path fill="#D1D6E0" opacity="1.000000" stroke="none" 
	d="
M55.388706,273.922974 
	C54.994949,225.804459 54.963341,177.755997 55.054779,129.707779 
	C55.064220,124.744423 55.676750,119.766449 56.286041,114.829384 
	C56.475368,113.295273 57.577908,111.873871 58.541851,110.189148 
	C58.886940,114.472115 59.008762,118.966782 59.009541,123.461464 
	C59.018181,173.286957 59.008057,223.112442 59.004173,273.394897 
	C57.932224,273.898926 56.859112,273.945984 55.388706,273.922974 
z"/>
<path fill="#D5D8E1" opacity="1.000000" stroke="none" 
	d="
M106.457939,65.947403 
	C109.246117,64.918289 112.492096,63.162640 115.749512,63.141144 
	C147.194504,62.933689 178.644028,62.797359 210.086044,63.167789 
	C218.333817,63.264961 226.553055,65.251045 234.802383,66.226089 
	C236.330429,66.406700 237.939804,65.899147 239.721542,65.457138 
	C243.719696,67.138504 247.507935,69.071938 251.811829,71.318420 
	C252.603424,71.826546 252.879364,72.021637 253.155319,72.216728 
	C253.326813,72.240013 253.498322,72.263306 253.370483,72.512039 
	C250.349747,72.443710 247.633209,71.983490 244.905533,71.903610 
	C242.249008,71.825813 239.581085,72.137260 236.918167,72.277794 
	C206.080276,65.224464 174.725433,65.961861 143.410934,66.052673 
	C131.247757,66.087944 119.084343,66.037117 106.457939,65.947403 
z"/>
<path fill="#E6E9EE" opacity="1.000000" stroke="none" 
	d="
M74.436989,65.946716 
	C76.019394,64.300583 77.835281,62.262424 80.108093,61.248665 
	C92.144135,55.880112 105.008644,54.323715 118.001442,54.060146 
	C132.275269,53.770592 146.559921,54.047615 160.838593,53.927460 
	C163.052704,53.908829 165.260040,53.087582 167.704926,52.351051 
	C177.924759,52.996143 187.912430,53.904564 197.894485,54.870789 
	C201.791168,55.247971 205.675262,55.755135 209.804474,56.534626 
	C204.955246,57.238316 199.863663,57.963890 194.778534,57.921139 
	C173.361206,57.741077 151.932510,56.740879 130.534561,57.222435 
	C117.178421,57.523006 103.849129,59.776802 90.557831,61.532818 
	C88.013489,61.868965 85.702660,63.972454 83.142517,65.569839 
	C80.294403,65.928520 77.587852,65.977959 74.436989,65.946716 
z"/>
<path fill="#F8F8FA" opacity="1.000000" stroke="none" 
	d="
M72.471130,51.828072 
	C71.225487,53.424450 69.541527,54.937912 67.829124,56.418472 
	C62.749634,60.810226 57.686749,65.221977 52.555035,69.552025 
	C51.086899,70.790810 49.406731,71.778313 47.479477,72.940002 
	C47.135162,66.109497 47.135162,59.220032 47.135162,51.730118 
	C55.637173,51.730118 63.828491,51.730118 72.471130,51.828072 
z"/>
<path fill="#C8C5D3" opacity="1.000000" stroke="none" 
	d="
M237.214554,72.487602 
	C239.581085,72.137260 242.249008,71.825813 244.905533,71.903610 
	C247.633209,71.983490 250.349747,72.443710 253.565430,72.683487 
	C257.987549,75.499329 261.915405,78.369171 265.935120,81.558998 
	C264.171295,81.354103 262.294708,80.893158 260.463623,80.293213 
	C252.805283,77.783981 245.160614,75.233055 237.214554,72.487602 
z"/>
<path fill="#C8C5D3" opacity="1.000000" stroke="none" 
	d="
M253.015381,71.991562 
	C252.879364,72.021637 252.603424,71.826546 252.151581,71.453568 
	C252.275604,71.439255 252.575516,71.602821 253.015381,71.991562 
z"/>
<path fill="#FA4075" opacity="1.000000" stroke="none" 
	d="
M217.558273,114.186142 
	C219.290451,115.805038 220.711273,117.262291 222.500122,119.190918 
	C223.505188,120.460701 224.142242,121.259102 224.879852,122.380058 
	C226.195892,124.515823 227.411362,126.329033 228.715698,128.507721 
	C230.008011,132.574997 231.211456,136.276825 232.531342,140.399048 
	C235.971115,157.648590 235.715363,174.379974 231.125259,191.337875 
	C229.285233,195.396606 227.597244,199.114594 225.637405,203.035278 
	C220.541946,207.720551 215.718353,212.203140 210.540680,216.789154 
	C205.485840,218.649292 200.785080,220.406021 195.684082,222.161194 
	C183.098557,223.481171 170.938660,225.173859 158.720139,226.008759 
	C148.631897,226.698090 138.474335,226.372833 127.880585,226.427032 
	C124.619583,226.372543 121.825493,226.388199 118.697510,226.367142 
	C117.917114,226.355652 117.470604,226.380844 117.024101,226.406036 
	C116.271164,226.373245 115.518219,226.340454 114.389816,226.350464 
	C106.862953,225.693848 106.825729,225.693863 106.823257,218.737061 
	C106.810020,181.450897 106.809738,144.164734 106.822800,106.878578 
	C106.825439,99.329872 107.093491,98.989021 114.745636,99.083450 
	C134.375000,99.325668 154.021866,99.252029 173.625534,100.121193 
	C189.261353,100.814445 204.270233,104.492798 217.558273,114.186142 
M199.679214,110.321655 
	C194.218414,108.902794 188.804749,106.501770 183.288544,106.236931 
	C160.705215,105.152679 138.090103,104.735558 115.487946,104.032562 
	C111.664185,103.913628 111.228935,106.304405 111.230286,109.255280 
	C111.246750,145.046692 111.267975,180.838150 111.212692,216.629486 
	C111.206047,220.931946 113.087265,222.370468 117.993484,221.546310 
	C121.535591,221.488998 125.077690,221.431671 129.458023,221.553802 
	C130.303818,221.472748 131.149597,221.391678 132.800583,221.542816 
	C141.607178,221.536331 150.460007,222.098312 159.209259,221.386734 
	C171.547836,220.383209 183.809708,218.436874 196.828934,216.897934 
	C210.418320,212.713150 221.432724,205.639816 226.125244,190.379425 
	C227.276718,184.693085 228.968079,179.054108 229.471832,173.310944 
	C230.670517,159.645370 230.414429,146.033813 224.795822,132.366425 
	C222.217270,128.547653 219.638718,124.728889 216.684036,120.363594 
	C214.148102,118.539986 211.612183,116.716385 208.536758,114.456131 
	C205.786377,113.214264 203.036011,111.972389 199.679214,110.321655 
z"/>
<path fill="#9A3368" opacity="1.000000" stroke="none" 
	d="
M119.031403,226.403839 
	C121.825493,226.388199 124.619583,226.372543 127.928162,226.852371 
	C128.457092,230.014252 128.622299,232.690323 128.451828,235.344864 
	C128.172806,239.690201 130.028061,241.097321 134.349991,241.025787 
	C149.012268,240.783112 163.682617,241.031113 178.345016,240.792709 
	C184.313416,240.695648 190.269318,239.831436 196.652679,239.299591 
	C201.053879,238.546356 205.033310,237.809814 209.404968,237.058136 
	C212.863037,235.989349 215.928864,234.935715 219.354752,233.869354 
	C230.193649,229.683044 238.258087,223.037888 242.262863,211.741760 
	C243.034836,209.397949 243.603378,207.341110 244.361877,204.934174 
	C245.199127,200.153000 245.846405,195.721924 246.599854,190.877197 
	C246.758209,185.142914 247.139618,179.800613 246.791351,174.506317 
	C246.143341,164.655243 244.657578,154.896317 238.948151,146.487778 
	C237.252594,143.990646 234.618774,142.130615 232.414886,139.978653 
	C231.211456,136.276825 230.008011,132.574997 229.107574,128.478821 
	C229.929855,128.059830 230.449112,128.035187 231.221588,128.228165 
	C235.926834,132.625031 240.378891,136.804276 244.943481,141.331100 
	C256.058533,161.985901 255.888168,183.599030 251.907501,205.422989 
	C249.111908,220.749725 240.538315,232.086121 226.229996,238.988647 
	C211.885986,245.908386 196.500443,247.444809 181.005463,247.881668 
	C163.362579,248.379105 145.696762,248.063721 127.642960,248.081238 
	C126.188217,248.068497 125.131424,248.076157 123.719910,248.182220 
	C122.596657,249.605347 121.288322,250.876312 121.150085,252.263870 
	C120.428513,259.506714 124.309120,263.906769 132.007950,263.888885 
	C150.060196,263.846954 168.111343,263.411407 186.163742,263.208710 
	C187.771561,263.190643 189.385406,263.708466 190.680420,264.135925 
	C188.576065,264.865417 186.787720,265.436401 184.999390,266.007385 
	C183.935196,266.009186 182.870987,266.010986 180.938232,266.009888 
	C163.043900,266.008270 146.018127,266.009552 128.992355,266.010834 
	C128.549683,266.010620 128.107010,266.010406 127.081741,265.805420 
	C125.330383,265.069702 124.161606,264.538788 122.992828,264.007874 
	C122.059959,262.877625 121.127083,261.747375 119.995728,260.048523 
	C119.528885,258.986481 119.260521,258.493042 118.992157,257.999634 
	C118.990074,257.252075 118.987991,256.504517 118.989059,254.913605 
	C119.005272,244.848129 119.018341,235.625977 119.031403,226.403839 
z"/>
<path fill="#9A3368" opacity="1.000000" stroke="none" 
	d="
M261.003326,236.003662 
	C258.146118,239.166870 255.288910,242.330078 251.919678,245.861755 
	C250.604660,247.152847 249.801682,248.075485 248.998688,248.998138 
	C244.080154,251.718643 239.264359,254.653732 234.203568,257.077209 
	C231.281769,258.476410 227.964539,259.049866 224.158173,259.994751 
	C223.317871,259.987976 223.144684,259.981415 223.159195,259.693817 
	C227.202408,257.554962 231.041504,255.662079 234.916458,253.845688 
	C247.343445,248.020493 257.440063,239.767563 262.692383,226.677856 
	C265.021088,220.874298 266.917114,214.897110 269.182129,209.162720 
	C269.581726,209.548889 269.803741,209.775986 270.020691,210.008011 
	C270.017212,210.755905 270.013733,211.503815 269.856262,212.862701 
	C269.474365,213.987061 269.246490,214.500412 269.018616,215.013763 
	C269.016083,215.760223 269.013580,216.506699 268.798340,217.894043 
	C268.058594,220.024704 267.531616,221.514496 267.004639,223.004288 
	C266.697571,224.427444 266.390533,225.850601 265.754028,227.786942 
	C264.618774,229.535629 263.812988,230.771133 263.007202,232.006638 
	C263.004456,232.448959 263.001709,232.891296 262.745239,233.807587 
	C261.995422,234.855591 261.499390,235.429626 261.003326,236.003662 
z"/>
<path fill="#9A3368" opacity="1.000000" stroke="none" 
	d="
M224.779297,122.057503 
	C224.142242,121.259102 223.505188,120.460701 222.747482,119.373032 
	C228.168625,120.689484 233.710419,122.295197 239.767166,124.204079 
	C240.856277,125.003380 241.430450,125.499519 242.004623,125.995659 
	C242.798218,126.278900 243.591797,126.562141 244.806778,127.221024 
	C246.152725,128.397278 247.077301,129.197891 248.001862,129.998505 
	C248.492615,130.267059 248.983368,130.535629 249.878159,131.155228 
	C250.855530,132.003571 251.428864,132.500870 252.002182,132.998184 
	C253.855728,135.168823 255.709290,137.339462 257.922791,140.007248 
	C258.854767,141.003204 259.426758,141.502014 259.998779,142.000839 
	C261.232117,144.458740 262.465424,146.916626 263.991852,149.937531 
	C264.854187,151.001617 265.423401,151.502731 265.992645,152.003845 
	C265.996979,152.751022 266.001312,153.498184 266.051575,154.967377 
	C267.063263,157.127182 268.028931,158.564957 268.994629,160.002731 
	C269.000916,161.387451 269.007202,162.772171 269.109375,164.837372 
	C269.471954,166.011993 269.738617,166.506134 270.005280,167.000290 
	C270.008209,167.747696 270.011108,168.495087 270.007355,169.955811 
	C269.992523,171.121826 269.984344,171.574509 269.688171,171.827850 
	C268.527557,169.544052 267.683685,167.447021 266.777191,165.377396 
	C263.481445,157.852737 261.174652,149.649506 256.628265,142.973373 
	C249.089752,131.903458 238.537689,124.240364 224.779297,122.057503 
z"/>
<path fill="#9F3469" opacity="1.000000" stroke="none" 
	d="
M129.235168,266.300110 
	C146.018127,266.009552 163.043900,266.008270 180.539169,266.009888 
	C179.401672,266.667206 177.800354,267.873108 176.186798,267.889740 
	C161.984558,268.036011 147.779907,268.008270 133.576828,267.907867 
	C132.207504,267.898224 130.844131,267.048889 129.235168,266.300110 
z"/>
<path fill="#9A3368" opacity="1.000000" stroke="none" 
	d="
M194.998016,265.995514 
	C194.554672,265.996277 194.111313,265.997070 193.335266,265.659973 
	C193.002716,264.872437 193.002884,264.422821 193.308411,263.751526 
	C202.741623,262.347931 211.869461,261.166016 220.752686,260.159912 
	C219.671951,260.891907 218.835861,261.448090 217.999756,262.004272 
	C217.557144,262.004517 217.114517,262.004730 216.022995,262.054382 
	C214.582504,262.405121 213.790909,262.706360 212.999313,263.007599 
	C212.252274,263.007629 211.505219,263.007690 209.978561,263.101685 
	C207.068466,263.460724 204.911987,263.597656 202.814072,264.023224 
	C200.183594,264.556854 197.601166,265.327271 194.998016,265.995514 
z"/>
<path fill="#9F3469" opacity="1.000000" stroke="none" 
	d="
M118.697510,226.367142 
	C119.018341,235.625977 119.005272,244.848129 118.988983,254.539825 
	C118.326210,253.063004 117.158333,251.132233 117.097893,249.167404 
	C116.873642,241.877502 117.014160,234.576401 117.020889,226.842773 
	C117.470604,226.380844 117.917114,226.355652 118.697510,226.367142 
z"/>
<path fill="#9A3368" opacity="1.000000" stroke="none" 
	d="
M272.990692,182.006607 
	C272.991058,186.691727 272.991425,191.376846 272.619385,196.529694 
	C271.503296,197.000458 270.759583,197.003510 270.010986,196.539703 
	C270.009003,191.379868 270.011810,186.686874 270.386780,181.994934 
	C271.502808,181.999512 272.246765,182.003052 272.990692,182.006607 
z"/>
<path fill="#9F3469" opacity="1.000000" stroke="none" 
	d="
M270.015839,197.006561 
	C270.759583,197.003510 271.503296,197.000458 272.618652,196.995346 
	C272.187744,201.177490 271.385254,205.361679 270.301727,209.776947 
	C269.803741,209.775986 269.581726,209.548889 269.225647,208.785522 
	C269.393341,206.497818 269.690125,204.751297 270.127075,202.733734 
	C270.179840,201.309067 270.092377,200.155441 270.005554,198.669235 
	C270.009399,197.893280 270.012634,197.449921 270.015839,197.006561 
z"/>
<path fill="#9F3469" opacity="1.000000" stroke="none" 
	d="
M195.457703,265.997070 
	C197.601166,265.327271 200.183594,264.556854 202.814072,264.023224 
	C204.911987,263.597656 207.068466,263.460724 209.605164,263.105835 
	C206.104568,267.748749 200.694427,265.377869 195.457703,265.997070 
z"/>
<path fill="#9F3469" opacity="1.000000" stroke="none" 
	d="
M193.003052,263.973175 
	C193.002884,264.422821 193.002716,264.872437 193.002502,265.659210 
	C190.553253,266.100708 188.104050,266.205048 185.327118,266.158386 
	C186.787720,265.436401 188.576065,264.865417 191.014908,264.136230 
	C192.111282,263.976410 192.557175,263.974792 193.003052,263.973175 
z"/>
<path fill="#9F3469" opacity="1.000000" stroke="none" 
	d="
M272.971924,181.657349 
	C272.246765,182.003052 271.502808,181.999512 270.382690,181.595703 
	C270.003632,180.130173 270.000793,179.064880 270.331726,177.999741 
	C271.110138,177.999924 271.554779,177.999969 271.999451,178.000000 
	C272.317352,179.102692 272.635254,180.205383 272.971924,181.657349 
z"/>
<path fill="#9F3469" opacity="1.000000" stroke="none" 
	d="
M268.949707,159.654785 
	C268.028931,158.564957 267.063263,157.127182 266.053284,155.340973 
	C266.974243,156.430649 267.939484,157.868744 268.949707,159.654785 
z"/>
<path fill="#9F3469" opacity="1.000000" stroke="none" 
	d="
M218.289917,262.098083 
	C218.835861,261.448090 219.671951,260.891907 221.081924,260.158508 
	C222.094360,259.979126 222.532928,259.976959 222.971497,259.974823 
	C223.144684,259.981415 223.317871,259.987976 223.750854,260.005341 
	C222.200470,260.741425 220.390259,261.466675 218.289917,262.098083 
z"/>
<path fill="#9F3469" opacity="1.000000" stroke="none" 
	d="
M269.976166,172.027206 
	C269.984344,171.574509 269.992523,171.121826 270.008026,170.329498 
	C270.669525,171.415146 271.323700,172.840408 271.651306,174.633331 
	C270.875824,175.001663 270.426880,175.002319 269.978271,174.630676 
	C269.977814,173.514648 269.976990,172.770935 269.976166,172.027206 
z"/>
<path fill="#9F3469" opacity="1.000000" stroke="none" 
	d="
M267.266785,222.846100 
	C267.531616,221.514496 268.058594,220.024704 268.796204,218.267273 
	C268.514191,219.562393 268.021576,221.125153 267.266785,222.846100 
z"/>
<path fill="#9A3368" opacity="1.000000" stroke="none" 
	d="
M269.977905,175.002991 
	C270.426880,175.002319 270.875824,175.001663 271.661560,175.001114 
	C271.998749,175.750885 271.999146,176.500534 271.999512,177.625092 
	C271.554779,177.999969 271.110138,177.999924 270.212860,177.762085 
	C269.832825,176.683853 269.905365,175.843430 269.977905,175.002991 
z"/>
<path fill="#9F3469" opacity="1.000000" stroke="none" 
	d="
M263.291931,231.854553 
	C263.812988,230.771133 264.618774,229.535629 265.709595,228.148621 
	C265.188629,229.232224 264.382660,230.467346 263.291931,231.854553 
z"/>
<path fill="#9F3469" opacity="1.000000" stroke="none" 
	d="
M123.124649,264.270203 
	C124.161606,264.538788 125.330383,265.069702 126.749741,265.804260 
	C125.752373,265.516113 124.504425,265.024323 123.124649,264.270203 
z"/>
<path fill="#9F3469" opacity="1.000000" stroke="none" 
	d="
M247.886902,129.701599 
	C247.077301,129.197891 246.152725,128.397278 245.112976,127.300064 
	C245.922485,127.803856 246.847214,128.604263 247.886902,129.701599 
z"/>
<path fill="#9F3469" opacity="1.000000" stroke="none" 
	d="
M249.295929,248.883972 
	C249.801682,248.075485 250.604660,247.152847 251.704941,246.115997 
	C251.199219,246.924469 250.396194,247.847153 249.295929,248.883972 
z"/>
<path fill="#9F3469" opacity="1.000000" stroke="none" 
	d="
M213.240845,263.111816 
	C213.790909,262.706360 214.582504,262.405121 215.690796,262.056458 
	C215.165817,262.411377 214.324097,262.813690 213.240845,263.111816 
z"/>
<path fill="#9F3469" opacity="1.000000" stroke="none" 
	d="
M241.862335,125.743919 
	C241.430450,125.499519 240.856277,125.003380 240.139954,124.255493 
	C240.571899,124.499893 241.145981,124.996040 241.862335,125.743919 
z"/>
<path fill="#9F3469" opacity="1.000000" stroke="none" 
	d="
M265.853088,151.750763 
	C265.423401,151.502731 264.854187,151.001617 264.145325,150.247345 
	C264.574982,150.495331 265.144257,150.996506 265.853088,151.750763 
z"/>
<path fill="#9F3469" opacity="1.000000" stroke="none" 
	d="
M259.857758,141.748276 
	C259.426758,141.502014 258.854767,141.003204 258.141357,140.252075 
	C258.572266,140.498398 259.144501,140.997055 259.857758,141.748276 
z"/>
<path fill="#9F3469" opacity="1.000000" stroke="none" 
	d="
M269.209473,214.911285 
	C269.246490,214.500412 269.474365,213.987061 269.854095,213.236664 
	C269.804077,213.602676 269.602173,214.205750 269.209473,214.911285 
z"/>
<path fill="#9F3469" opacity="1.000000" stroke="none" 
	d="
M251.860397,132.746094 
	C251.428864,132.500870 250.855530,132.003571 250.140427,131.254211 
	C250.571976,131.499451 251.145294,131.996719 251.860397,132.746094 
z"/>
<path fill="#9F3469" opacity="1.000000" stroke="none" 
	d="
M118.940277,258.204193 
	C119.260521,258.493042 119.528885,258.986481 119.893410,259.744507 
	C119.622513,259.475677 119.255455,258.942230 118.940277,258.204193 
z"/>
<path fill="#9F3469" opacity="1.000000" stroke="none" 
	d="
M261.255127,235.861526 
	C261.499390,235.429626 261.995422,234.855591 262.743103,234.139328 
	C262.498749,234.571198 262.002808,235.145294 261.255127,235.861526 
z"/>
<path fill="#9F3469" opacity="1.000000" stroke="none" 
	d="
M270.057556,166.795959 
	C269.738617,166.506134 269.471954,166.011993 269.110474,165.252777 
	C269.380432,165.522339 269.745148,166.056976 270.057556,166.795959 
z"/>
<path fill="#2E2559" opacity="1.000000" stroke="none" 
	d="
M131.995392,221.310608 
	C131.149597,221.391678 130.303818,221.472748 129.048126,220.970093 
	C128.665863,190.255692 128.761444,160.124771 128.649445,129.994614 
	C128.632202,125.352028 130.042328,123.433533 134.910934,123.520050 
	C151.719574,123.818748 168.539001,123.582481 185.344162,123.980072 
	C199.098419,124.305489 212.464905,126.856895 224.926422,133.073273 
	C230.414429,146.033813 230.670517,159.645370 229.471832,173.310944 
	C228.968079,179.054108 227.276718,184.693085 225.499939,190.717560 
	C217.111588,191.055069 209.346497,191.161041 201.586395,191.010178 
	C197.531586,190.931351 195.918167,192.639496 196.039337,196.633408 
	C196.184494,201.417801 196.022430,206.211533 195.711624,210.821381 
	C193.769821,208.393356 192.364304,205.888519 190.403305,203.943817 
	C183.827179,197.422318 176.919022,191.233917 170.385483,184.671570 
	C160.449356,174.691666 150.754181,164.472153 140.858856,154.450974 
	C139.671249,153.248260 137.243805,151.562637 136.494934,151.998322 
	C135.050446,152.838699 133.732101,154.955017 133.523972,156.682373 
	C132.491837,165.247894 131.295410,173.851776 131.179657,182.455902 
	C131.005493,195.401459 131.681061,208.358475 131.995392,221.310608 
z"/>
<path fill="#292458" opacity="1.000000" stroke="none" 
	d="
M132.397980,221.426712 
	C131.681061,208.358475 131.005493,195.401459 131.179657,182.455902 
	C131.295410,173.851776 132.491837,165.247894 133.523972,156.682373 
	C133.732101,154.955017 135.050446,152.838699 136.494934,151.998322 
	C137.243805,151.562637 139.671249,153.248260 140.858856,154.450974 
	C150.754181,164.472153 160.449356,174.691666 170.385483,184.671570 
	C176.919022,191.233917 183.827179,197.422318 190.403305,203.943817 
	C192.364304,205.888519 193.769821,208.393356 195.727173,211.242584 
	C196.051147,213.526962 196.077759,215.210297 196.104385,216.893646 
	C183.809708,218.436874 171.547836,220.383209 159.209259,221.386734 
	C150.460007,222.098312 141.607178,221.536331 132.397980,221.426712 
z"/>
<path fill="#9C3368" opacity="1.000000" stroke="none" 
	d="
M224.861115,132.719849 
	C212.464905,126.856895 199.098419,124.305489 185.344162,123.980072 
	C168.539001,123.582481 151.719574,123.818748 134.910934,123.520050 
	C130.042328,123.433533 128.632202,125.352028 128.649445,129.994614 
	C128.761444,160.124771 128.665863,190.255692 128.629028,220.880371 
	C125.077690,221.431671 121.535591,221.488998 117.532730,221.062180 
	C117.050804,188.481186 116.983604,156.384247 117.037819,124.287514 
	C117.053146,115.208115 121.143135,111.009804 130.169388,111.056839 
	C151.772491,111.169388 173.374069,111.554024 194.977051,111.738701 
	C196.743576,111.753807 198.515961,111.082748 200.285629,110.730522 
	C203.036011,111.972389 205.786377,113.214264 208.443512,114.851746 
	C206.718140,115.452736 205.080658,115.872086 203.454712,115.831230 
	C180.693115,115.259178 157.933350,114.613441 135.172028,114.029877 
	C133.698929,113.992104 132.216583,114.315277 130.738541,114.470551 
	C130.787552,114.979416 130.836548,115.488274 130.885559,115.997139 
	C133.156723,115.997139 135.429993,115.933159 137.698746,116.007133 
	C158.125473,116.673111 178.559311,117.194824 198.972763,118.149879 
	C205.031677,118.433350 211.032639,119.955544 217.060165,120.910126 
	C219.638718,124.728889 222.217270,128.547653 224.861115,132.719849 
z"/>
<path fill="#AD356A" opacity="1.000000" stroke="none" 
	d="
M199.982422,110.526093 
	C198.515961,111.082748 196.743576,111.753807 194.977051,111.738701 
	C173.374069,111.554024 151.772491,111.169388 130.169388,111.056839 
	C121.143135,111.009804 117.053146,115.208115 117.037819,124.287514 
	C116.983604,156.384247 117.050804,188.481186 117.097580,220.996246 
	C113.087265,222.370468 111.206047,220.931946 111.212692,216.629486 
	C111.267975,180.838150 111.246750,145.046692 111.230286,109.255280 
	C111.228935,106.304405 111.664185,103.913628 115.487946,104.032562 
	C138.090103,104.735558 160.705215,105.152679 183.288544,106.236931 
	C188.804749,106.501770 194.218414,108.902794 199.982422,110.526093 
z"/>
<path fill="#2C2458" opacity="1.000000" stroke="none" 
	d="
M196.230927,239.316284 
	C190.269318,239.831436 184.313416,240.695648 178.345016,240.792709 
	C163.682617,241.031113 149.012268,240.783112 134.349991,241.025787 
	C130.028061,241.097321 128.172806,239.690201 128.451828,235.344864 
	C128.622299,232.690323 128.457092,230.014252 128.395065,226.922516 
	C138.474335,226.372833 148.631897,226.698090 158.720139,226.008759 
	C170.938660,225.173859 183.098557,223.481171 195.681625,222.619064 
	C196.129913,228.491058 196.180420,233.903671 196.230927,239.316284 
z"/>
<path fill="#8C3166" opacity="1.000000" stroke="none" 
	d="
M269.978271,174.630676 
	C269.905365,175.843430 269.832825,176.683853 269.879089,177.761948 
	C270.000793,179.064880 270.003632,180.130173 270.010559,181.594666 
	C270.011810,186.686874 270.009003,191.379868 270.010986,196.539703 
	C270.012634,197.449921 270.009399,197.893280 269.866516,198.939896 
	C269.813538,200.697021 269.900208,201.850906 269.986877,203.004776 
	C269.690125,204.751297 269.393341,206.497818 269.053101,208.621536 
	C266.917114,214.897110 265.021088,220.874298 262.692383,226.677856 
	C257.440063,239.767563 247.343445,248.020493 234.916458,253.845688 
	C231.041504,255.662079 227.202408,257.554962 223.159195,259.693817 
	C222.532928,259.976959 222.094360,259.979126 221.326538,259.982697 
	C211.869461,261.166016 202.741623,262.347931 193.308411,263.751526 
	C192.557175,263.974792 192.111282,263.976410 191.330933,263.977692 
	C189.385406,263.708466 187.771561,263.190643 186.163742,263.208710 
	C168.111343,263.411407 150.060196,263.846954 132.007950,263.888885 
	C124.309120,263.906769 120.428513,259.506714 121.150085,252.263870 
	C121.288322,250.876312 122.596657,249.605347 123.706619,248.590912 
	C124.467842,258.001221 127.274170,261.024170 136.222519,260.938599 
	C155.527649,260.754089 174.863510,260.881378 194.123856,259.780121 
	C211.318253,258.797058 228.209534,255.457291 242.897522,245.507553 
	C251.790909,239.483093 258.949310,231.503998 262.159729,221.292755 
	C268.544769,200.984055 268.870422,180.368515 262.416229,159.860703 
	C257.992920,145.806030 249.287628,135.337280 236.131393,128.701584 
	C234.666794,127.962883 232.701477,128.216919 230.968384,128.010559 
	C230.449112,128.035187 229.929855,128.059830 229.018707,128.113358 
	C227.411362,126.329033 226.195892,124.515823 224.879852,122.380058 
	C238.537689,124.240364 249.089752,131.903458 256.628265,142.973373 
	C261.174652,149.649506 263.481445,157.852737 266.777191,165.377396 
	C267.683685,167.447021 268.527557,169.544052 269.688171,171.827850 
	C269.976990,172.770935 269.977814,173.514648 269.978271,174.630676 
z"/>
<path fill="#354974" opacity="1.000000" stroke="none" 
	d="
M196.466660,216.895782 
	C196.077759,215.210297 196.051147,213.526962 196.008972,211.422424 
	C196.022430,206.211533 196.184494,201.417801 196.039337,196.633408 
	C195.918167,192.639496 197.531586,190.931351 201.586395,191.010178 
	C209.346497,191.161041 217.111588,191.055069 225.327927,191.072235 
	C221.432724,205.639816 210.418320,212.713150 196.466660,216.895782 
z"/>
<path fill="#32255A" opacity="1.000000" stroke="none" 
	d="
M232.531342,140.399048 
	C234.618774,142.130615 237.252594,143.990646 238.948151,146.487778 
	C244.657578,154.896317 246.143341,164.655243 246.791351,174.506317 
	C247.139618,179.800613 246.758209,185.142914 246.093552,190.829132 
	C240.746490,191.128845 236.011902,191.062988 231.277313,190.997131 
	C235.715363,174.379974 235.971115,157.648590 232.531342,140.399048 
z"/>
<path fill="#40547B" opacity="1.000000" stroke="none" 
	d="
M244.171936,205.284256 
	C243.603378,207.341110 243.034836,209.397949 241.819550,211.736542 
	C226.971817,212.120483 219.236542,219.746155 218.994705,233.882095 
	C215.928864,234.935715 212.863037,235.989349 209.323715,236.682190 
	C209.531738,229.776184 210.213242,223.230957 210.894745,216.685745 
	C215.718353,212.203140 220.541946,207.720551 225.980103,203.212585 
	C228.707169,203.187164 230.851959,202.952759 232.925201,203.238144 
	C236.696533,203.757294 240.425369,204.585205 244.171936,205.284256 
z"/>
<path fill="#384C76" opacity="1.000000" stroke="none" 
	d="
M210.540680,216.789154 
	C210.213242,223.230957 209.531738,229.776184 208.931488,236.697342 
	C205.033310,237.809814 201.053879,238.546356 196.652679,239.299591 
	C196.180420,233.903671 196.129913,228.491058 196.081879,222.620605 
	C200.785080,220.406021 205.485840,218.649292 210.540680,216.789154 
z"/>
<path fill="#384C76" opacity="1.000000" stroke="none" 
	d="
M244.361877,204.934174 
	C240.425369,204.585205 236.696533,203.757294 232.925201,203.238144 
	C230.851959,202.952759 228.707169,203.187164 226.251953,203.009903 
	C227.597244,199.114594 229.285233,195.396606 231.125259,191.337875 
	C236.011902,191.062988 240.746490,191.128845 245.987396,191.242767 
	C245.846405,195.721924 245.199127,200.153000 244.361877,204.934174 
z"/>
<path fill="#953267" opacity="1.000000" stroke="none" 
	d="
M216.872101,120.636856 
	C211.032639,119.955544 205.031677,118.433350 198.972763,118.149879 
	C178.559311,117.194824 158.125473,116.673111 137.698746,116.007133 
	C135.429993,115.933159 133.156723,115.997139 130.885559,115.997139 
	C130.836548,115.488274 130.787552,114.979416 130.738541,114.470551 
	C132.216583,114.315277 133.698929,113.992104 135.172028,114.029877 
	C157.933350,114.613441 180.693115,115.259178 203.454712,115.831230 
	C205.080658,115.872086 206.718140,115.452736 208.713257,115.070076 
	C211.612183,116.716385 214.148102,118.539986 216.872101,120.636856 
z"/>
<path fill="#6D2D62" opacity="1.000000" stroke="none" 
	d="
M128.040924,248.101608 
	C145.696762,248.063721 163.362579,248.379105 181.005463,247.881668 
	C196.500443,247.444809 211.885986,245.908386 226.229996,238.988647 
	C240.538315,232.086121 249.111908,220.749725 251.907501,205.422989 
	C255.888168,183.599030 256.058533,161.985901 245.296417,141.426941 
	C248.349991,144.105698 251.906418,146.614670 253.848648,150.039139 
	C262.608673,165.484589 264.633850,182.312851 262.830963,199.744644 
	C261.692566,210.751541 259.708893,221.531128 253.308395,230.919891 
	C244.592545,243.705017 231.659927,249.933670 217.148911,252.973297 
	C190.427307,258.570648 163.276443,258.419800 136.152191,257.853455 
	C129.553696,257.715668 128.078491,255.562927 128.040924,248.101608 
z"/>
<path fill="#7A2F63" opacity="1.000000" stroke="none" 
	d="
M127.642960,248.081238 
	C128.078491,255.562927 129.553696,257.715668 136.152191,257.853455 
	C163.276443,258.419800 190.427307,258.570648 217.148911,252.973297 
	C231.659927,249.933670 244.592545,243.705017 253.308395,230.919891 
	C259.708893,221.531128 261.692566,210.751541 262.830963,199.744644 
	C264.633850,182.312851 262.608673,165.484589 253.848648,150.039139 
	C251.906418,146.614670 248.349991,144.105698 245.183899,141.079346 
	C240.378891,136.804276 235.926834,132.625031 231.221588,128.228180 
	C232.701477,128.216919 234.666794,127.962883 236.131393,128.701584 
	C249.287628,135.337280 257.992920,145.806030 262.416229,159.860703 
	C268.870422,180.368515 268.544769,200.984055 262.159729,221.292755 
	C258.949310,231.503998 251.790909,239.483093 242.897522,245.507553 
	C228.209534,255.457291 211.318253,258.797058 194.123856,259.780121 
	C174.863510,260.881378 155.527649,260.754089 136.222519,260.938599 
	C127.274170,261.024170 124.467842,258.001221 124.061356,248.492508 
	C125.131424,248.076157 126.188217,248.068497 127.642960,248.081238 
z"/>
<path fill="#455A80" opacity="1.000000" stroke="none" 
	d="
M219.354752,233.869354 
	C219.236542,219.746155 226.971817,212.120483 241.616119,212.023514 
	C238.258087,223.037888 230.193649,229.683044 219.354752,233.869354 
z"/>
<path fill="#9A3368" opacity="1.000000" stroke="none" 
	d="
M270.127075,202.733734 
	C269.900208,201.850906 269.813538,200.697021 269.865906,199.272491 
	C270.092377,200.155441 270.179840,201.309067 270.127075,202.733734 
z"/>
</svg>